<svg width="150" height="154" viewBox="0 0 150 154" fill="none" xmlns="http://www.w3.org/2000/svg">
<circle cx="75" cy="79" r="75" fill="#F782EB"/>
<g filter="url(#filter0_d_7_22)">
<path d="M56.625 84C54.375 75.75 52.75 68.9583 51.75 63.625C50.75 58.2917 50.0417 54.0833 49.625 51C49.2917 47.8333 49.1667 45.5833 49.25 44.25C49.3333 42.8333 49.375 41.9583 49.375 41.625C49.2917 40.2917 49.4583 38.875 49.875 37.375C50.375 35.875 51.5417 34.625 53.375 33.625C55.5417 32.2083 57.5417 31.4167 59.375 31.25C61.2917 31 62.3333 30.9583 62.5 31.125C62.0833 32.0417 61.8333 33.0833 61.75 34.25C61.6667 35.4167 61.75 37.125 62 39.375C62.25 41.5417 62.625 44.5 63.125 48.25C63.7083 51.9167 64.4583 56.7917 65.375 62.875C66.0417 67.375 66.75 71.75 67.5 76C68.3333 80.25 69.125 84.2917 69.875 88.125C70.7083 91.875 71.5 95.375 72.25 98.625C73 101.875 73.7083 104.75 74.375 107.25C74.875 105.083 75.375 102.583 75.875 99.75C76.4583 96.8333 77.0417 93.75 77.625 90.5C78.2917 87.25 79 83.9167 79.75 80.5C80.5833 77.0833 81.4583 73.7083 82.375 70.375C83.2917 66.2917 84.2917 62.1667 85.375 58C86.2917 54.4167 87.3333 50.5833 88.5 46.5C89.75 42.3333 91.0833 38.5 92.5 35C94.5 33.8333 96.375 33.0833 98.125 32.75C99.9583 32.4167 101.542 32.3333 102.875 32.5C104.375 32.6667 105.792 33 107.125 33.5C106.292 35.25 105.417 37.2917 104.5 39.625C103.583 41.875 102.667 44.25 101.75 46.75C100.917 49.1667 100.083 51.6667 99.25 54.25C98.4167 56.8333 97.625 59.3333 96.875 61.75C95.125 67.5 93.375 73.375 91.625 79.375C90.2083 84.375 88.8333 89.4583 87.5 94.625C86.3333 99.0417 85.125 103.792 83.875 108.875C82.7083 113.958 81.6667 118.75 80.75 123.25C80.75 123.667 80.25 124.125 79.25 124.625C78.3333 125.125 77.2083 125.542 75.875 125.875C74.625 126.292 73.25 126.542 71.75 126.625C70.3333 126.792 69.0833 126.667 68 126.25C66.5 122.417 65.0833 118.083 63.75 113.25C62.4167 108.333 61.2083 103.708 60.125 99.375C58.875 94.2917 57.7083 89.1667 56.625 84Z" fill="black"/>
</g>
<defs>
<filter id="filter0_d_7_22" x="49.125" y="30.875" width="67" height="105" filterUnits="userSpaceOnUse" color-interpolation-filters="sRGB">
<feFlood flood-opacity="0" result="BackgroundImageFix"/>
<feColorMatrix in="SourceAlpha" type="matrix" values="0 0 0 0 0 0 0 0 0 0 0 0 0 0 0 0 0 0 127 0" result="hardAlpha"/>
<feOffset dx="5" dy="5"/>
<feGaussianBlur stdDeviation="2"/>
<feComposite in2="hardAlpha" operator="out"/>
<feColorMatrix type="matrix" values="0 0 0 0 0 0 0 0 0 0 0 0 0 0 0 0 0 0 0.25 0"/>
<feBlend mode="normal" in2="BackgroundImageFix" result="effect1_dropShadow_7_22"/>
<feBlend mode="normal" in="SourceGraphic" in2="effect1_dropShadow_7_22" result="shape"/>
</filter>
</defs>
</svg>
